<?xml version="1.0" encoding="utf-8"?>
<!-- Generator: Adobe Illustrator 26.0.1, SVG Export Plug-In . SVG Version: 6.00 Build 0)  -->
<svg version="1.1" id="Layer_1" xmlns="http://www.w3.org/2000/svg" xmlns:xlink="http://www.w3.org/1999/xlink" x="0px" y="0px"
	 viewBox="0 0 518 120" style="enable-background:new 0 0 518 120;" xml:space="preserve">
<style type="text/css">
	.st0{fill:#FA776C;}
	.st1{fill:#624CF5;}
</style>
<path class="st0" d="M98.9,66.6c0-4.1,0.2-8.2-0.1-12.3c-0.2-2.5-0.9-5-1.7-7.5c-0.3-0.8-1.3-1.6-2.2-1.8c-2.2-0.5-2.7,0.2-2.3,2.4
	c1.3,6.6,1.4,13.3,0.2,19.9c-0.1,0.5-0.2,1.1-0.4,1.6c0,0.1-0.2,0.2-0.2,0.2c0-5.1,0.3-10.2-0.1-15.3c-0.3-3.6-1.3-7.2-2.2-10.8
	c-0.6-2.3-2.1-3.3-4.7-3.2c-5.1,0.2-5.9,0.6-7.2,5.6c-0.7,2.8-1.2,5.6-1.5,8.4c-0.1,0.9,0.7,2,1.2,3.2c-0.1,0-0.7,0.3-1.3,0.3
	c-3,0-6,0-9,0c-1.5,0-2.1-0.7-2.1-2.2c0-11.8-0.1-23.7,0.1-35.5c0.1-5.6,1.3-11.1,4.9-15.7c4.4-5.7,12.7-5.2,15.7,1.2
	c-0.7,0.5-1.4,1-1.6,1.2c3.5,0,7.4-0.3,11.2,0.1c3.9,0.5,7.1,2.7,8.4,6.6c0.5,1.4,0.4,3,0.6,4.8c5,2,7.9,6.2,9.1,11.8
	c0.6,3.2,0.3,3.6-2.8,2.9c-0.3-0.1-0.5,0-0.9,0.1c4,1.9,7.8,4,9.8,8.1c2.1,4.3,1.3,8.5-0.3,13c3.1,1.6,5,4.3,5.8,7.8
	c1.3,5.5,0,10.3-3.6,14.7c-0.5,0.6-0.9,1.6-0.7,2.3c2.4,8.2-3,15.8-11.5,16.1c-0.3,0-0.5,0-0.8,0.2c0.2,0,0.5,0.1,0.7,0.1
	c4,0.2,4.5,0.7,3.5,4.8c-1.6,7-6.8,10.7-13.8,10.1c-0.7,0.9-1.1,1.8-1.8,2.5c-3.5,3.7-7.6,6.2-12.7,7.2c-7,1.4-14.1-2-16.7-8.7
	c-1.3-3.4-2.3-7.3-2.4-10.9c-0.3-11.6-0.1-23.1-0.2-34.7c0-2.2,0.9-2.9,3-2.9c1.9,0,3.9,0.1,5.8,0c1.6-0.1,2.1,0.6,2.3,2.1
	c0.5,3.8,1.1,7.6,2,11.3c1,3.7,1.8,3.9,5.5,4.1c3.1,0.2,5.2-0.6,6.3-3.7c0.2-0.6,1.6-1.2,2.5-1.2c2.1,0,3.8-0.2,4.8-2.5
	c0.3-0.6,1.9-1,2.9-1c2.2,0.1,3.3-0.9,3.8-2.8c1.4-5.9,1.6-11.9-0.1-17.8c-0.2-0.7-0.4-1.6-0.9-1.8c-0.4-0.2-0.9-0.3-1.3-0.5
	c-1.1-0.2-2.3,0.7-2.1,1.8c0,0,0,0,0,0c0.7,4.8,1.1,9.5,0.1,14.3c-0.1,0.4-0.2,0.8-0.3,1.2c-0.1,0.2-0.2,0.3-0.3,0.5
	C99.1,66.6,99,66.6,98.9,66.6z"/>
<path class="st0" d="M82.9,41.6c4.6,3.6,4.6,34-0.2,37C86,66.3,85.8,54,82.9,41.6z"/>
<path class="st1" d="M27.2,66.6c0-4.1-0.2-8.2,0.1-12.3c0.2-2.5,0.9-5,1.7-7.5c0.3-0.8,1.3-1.6,2.2-1.8c2.2-0.5,2.7,0.2,2.3,2.4
	c-1.3,6.6-1.4,13.3-0.2,19.9c0.1,0.5,0.2,1.1,0.4,1.6c0,0.1,0.2,0.2,0.2,0.2c0-5.1-0.3-10.2,0.1-15.3c0.3-3.6,1.3-7.2,2.2-10.8
	c0.6-2.3,2.1-3.3,4.7-3.2c5.1,0.2,5.9,0.6,7.2,5.6c0.7,2.8,1.2,5.6,1.5,8.4c0.1,0.9-0.7,2-1.2,3.2c0.1,0,0.7,0.3,1.3,0.3
	c3,0,6,0,9,0c1.5,0,2.1-0.7,2.1-2.2c0-11.8,0.1-23.7-0.1-35.5C60.4,14.1,59.3,8.6,55.7,4C51.3-1.8,43-1.2,40,5.2
	c0.7,0.5,1.4,1,1.6,1.2c-3.5,0-7.4-0.3-11.2,0.1c-3.9,0.5-7.1,2.7-8.4,6.6c-0.5,1.4-0.4,3-0.6,4.8c-5,2-7.9,6.2-9.1,11.8
	c-0.6,3.2-0.3,3.6,2.8,2.9c0.3-0.1,0.5,0,0.9,0.1c-4,1.9-7.8,4-9.8,8.1c-2.1,4.3-1.3,8.5,0.3,13c-3.1,1.6-5,4.3-5.8,7.8
	c-1.3,5.5,0,10.3,3.6,14.7c0.5,0.6,0.9,1.6,0.7,2.3c-2.4,8.2,3,15.8,11.5,16.1c0.3,0,0.5,0,0.8,0.2c-0.2,0-0.5,0.1-0.7,0.1
	c-4,0.2-4.5,0.7-3.5,4.8c1.6,7,6.8,10.7,13.8,10.1c0.7,0.9,1.1,1.8,1.8,2.5c3.5,3.7,7.6,6.2,12.7,7.2c7,1.4,14.1-2,16.7-8.7
	c1.3-3.4,2.3-7.3,2.4-10.9c0.3-11.6,0.1-23.1,0.2-34.7c0-2.2-0.9-2.9-3-2.9c-1.9,0-3.9,0.1-5.8,0c-1.6-0.1-2.1,0.6-2.3,2.1
	c-0.5,3.8-1.1,7.6-2,11.3c-1,3.7-1.8,3.9-5.5,4.1c-3.1,0.2-5.2-0.6-6.3-3.7c-0.2-0.6-1.6-1.2-2.5-1.2c-2.1,0-3.8-0.2-4.8-2.5
	c-0.3-0.6-1.9-1-2.9-1c-2.2,0.1-3.3-0.9-3.8-2.8C20.5,62.9,20.4,57,22,51.1c0.2-0.7,0.4-1.6,0.9-1.8c0.4-0.2,0.9-0.3,1.3-0.5
	c1.1-0.2,2.3,0.7,2.1,1.8c0,0,0,0,0,0c-0.7,4.8-1.1,9.5-0.1,14.3c0.1,0.4,0.2,0.8,0.3,1.2c0.1,0.2,0.2,0.3,0.3,0.5
	C27,66.6,27.1,66.6,27.2,66.6z"/>
<path class="st1" d="M43.2,41.6c-4.6,3.6-4.6,34,0.2,37C40.1,66.3,40.3,54,43.2,41.6z"/>
<g>
	<path d="M148,23.3v17.5h15.2v55.6h21.3V40.9h15.2V23.3H148z"/>
	<path d="M268.4,96.5h0.2c0-0.1,0-0.1,0-0.2C268.6,96.4,268.5,96.5,268.4,96.5z M263.8,29.3c-4.7-4-11.2-5.9-19.6-5.9h-38.2v73.2
		h22.5v-28h7.1l10.7,28h6.6c-0.2-0.6-0.4-1.2-0.4-1.9c-0.3-5.1,2.7-9.4,3.8-10.9c0.3-0.4,0.6-0.8,1.1-1.1c0.7-0.5,1.5-0.8,2.4-0.8
		c0.7,0,1.3,0.2,1.9,0.5c0.9,0.5,1.8,1.5,2.2,2.7c0-0.1,0.4-0.4,0.4-0.4c0.3-0.4,0.8-0.9,1.4-1.4l-7.7-18.5
		c5.2-2.5,8.7-5.3,10.4-8.5c1.7-3.2,2.6-7,2.6-11.2C270.8,38.4,268.5,33.2,263.8,29.3z M244.8,51.1c-1.7,1.2-4,1.8-6.8,1.8h-9.6v-14
		h10.3c5.8,0,8.6,2.3,8.6,7C247.4,48.2,246.5,49.9,244.8,51.1z"/>
	<path d="M322,23.3h-23.7l-18.1,58.5c0.5,0.5,1,1.2,1.2,1.9c0.4-0.2,0.9-0.2,1.4-0.2h0.1l0.1,0c1.3,0,2.5,0.7,3.3,1.7
		c0.4,0.5,0.7,1,0.8,1.5c0.7-0.7,1.3-1.2,1.7-1.6c0.6-0.5,1.9-1.6,3.8-1.6c0.4,0,0.9,0.1,1.3,0.2l0.1,0c0.7,0.2,1.2,0.6,1.7,1
		c0.5-1.1,1.3-1.9,2.2-2.3l0.1-0.5h4.8c0,0,0,0,0,0c0.9-0.4,1.7-0.6,2.6-0.6c0.9,0,1.8,0.2,2.6,0.6h9.5l4.1,14.4h0.1V52.4h9
		L322,23.3z M302.1,66.1l5.9-21.2l5.9,21.2H302.1z M336.9,71v0.4h0.1L336.9,71z"/>
	<path d="M351.7,23.3V53c2.7,0.7,4.8,1.9,6.5,3.7c0.7,0.8,1.3,1.6,1.8,2.4c1.3,2.1,2,4.6,2,7.2c0,2.5-0.7,4.8-2,6.9
		c-0.1,0.1-0.2,0.3-0.3,0.4c-0.3,0.5-0.7,1-1.2,1.4c0.3,0.3,0.7,0.5,1,0.8c1.3,1.3,2.3,2.8,2.9,4.5V52.4h11.8V23.3H351.7z
		 M361.6,91.9c-0.5,1.1-1.2,2.3-2,3.4c-0.4,0.5-0.8,0.9-1.2,1.2h3.9V90C362.1,90.7,361.8,91.3,361.6,91.9z"/>
	<path d="M404.2,73.5c-0.2,0.6-0.5,1.3-0.8,1.9c-1,1.8-2.5,3.4-4.8,4.8l4.8,11.6l1.6-5.3V69.8C404.9,71.1,404.7,72.4,404.2,73.5z
		 M431.1,23.3V45c0,2.5,0.1,5,0.2,7.4h2.2l11.7,37.3V52.4h4.2V23.3H431.1z M425.1,50.2l-17-26.8h-21.2v29.1h0.2c1.5,0,3,0.1,4.4,0.3
		c3.5,0.6,6.4,1.8,8.7,3.7c2.9,2.4,4.5,5.5,4.9,9.2v-4.6c0-3.3-0.6-7.3-1.8-12c2.6,5.9,5.2,11,7.8,15.1l0.6,1l3.9-12.7h10.9
		C426.1,51.7,425.6,50.9,425.1,50.2z"/>
</g>
<g>
	<path d="M268.6,96.3c0,0.1,0,0.1,0,0.2h-0.2C268.5,96.5,268.6,96.4,268.6,96.3z"/>
	<g>
		<path class="st0" d="M268.4,96.5h0.2c0-0.1,0-0.1,0-0.2C268.6,96.4,268.5,96.5,268.4,96.5z"/>
		<path class="st0" d="M307.2,84.9c-0.9-0.5-1.9-0.5-2.9-0.1c-1,0.4-2,1.3-2.9,2.3c0-0.2,0.1-0.4,0.1-0.5c0.1-0.6-0.5-1.2-1.2-1.4
			c-0.7-0.2-1.4,0.2-1.7,0.9l-0.5,1.2c-0.3,0.7-0.6,1.4-0.9,2.1l-0.2,0.4c-0.2,0.5-0.4,0.9-0.5,1.4l-0.1,0.4c0,0.1-0.1,0.3-0.2,0.5
			c-0.4,0.3-0.8,0.7-1.3,1c-1.5,1.1-3.3,2.1-3.3,2.1c-0.2,0.1-0.3,0.2-0.4,0.2c0.2-0.9,1.1-2.7,1.7-3.9c0.3-0.5,0.5-1.1,0.8-1.6
			l0.1-0.2c0.1-0.2,0.2-0.3,0.2-0.5c0.3-0.6,0.3-1.3,0.1-1.8c-0.2-0.4-0.5-0.6-0.9-0.8c-1.1-0.3-1.9,0.4-2.4,0.8
			c-0.5,0.4-1.1,1-1.8,1.7c-1.7,1.6-4.2,4-6,4.8c-0.3,0.1-0.6,0.2-0.8,0.2h-0.1c-0.1,0-0.1,0-0.1,0c0-0.1-0.3-0.7,1.6-4.3
			c0.1-0.3,0.3-0.5,0.4-0.7c0.3-0.6,0.4-0.7,0.4-0.8c0.1-0.4-0.1-0.8-0.4-1.2c-0.3-0.4-0.7-0.6-1.1-0.6c-0.3,0-0.8,0.1-1.2,0.6
			c-0.5,0.5-0.8,1.2-1.2,2.3c-0.2,0.5-0.3,1-0.4,1.5c-0.4,0-0.8-0.1-1.4-0.2c-0.2,0-0.4-0.1-0.5-0.1c0.1-0.2,0.2-0.5,0.3-0.7
			c0.2-0.4,0.3-0.8,0.4-1.3c0.2-0.8,0.3-1.6,0.2-2.3c0-0.1,0-0.3,0-0.4c-0.3-1.7-1.4-2.8-3.1-3c-0.1,0-0.2,0-0.3,0
			c-0.9-0.1-1.8,0.1-2.6,0.4c-1.4,0.7-2,2.1-1.7,3.7c0.1,0.3,0.2,0.6,0.2,0.8c-0.2,0.6-0.4,1.2-0.5,1.7l0,0.1
			c-0.1,0.2-0.2,0.4-0.3,0.7c-0.3,0.7-0.7,1.6-1.1,2.6c-0.1,0.1-0.1,0.2-0.1,0.4c-0.3,0.2-0.6,0.4-1,0.7c-0.2,0.1-0.3,0.2-0.5,0.4
			c0.1-0.2,0.2-0.4,0.2-0.6c0.3-0.8,0.6-1.6,0.9-2.4c0.5-1.5,0.9-2.9,1.3-4.3l0-0.2c0-0.5,0-1.1,0-1.7l0-0.4l-0.3-0.2
			c-0.2-0.1-0.3-0.1-0.5-0.2l-0.4-0.2l-0.2,0.1c-0.4,0.1-0.7,0.3-0.9,0.5c-0.4,0.3-0.8,0.6-1.1,1c-0.1,0.2-0.3,0.3-0.4,0.5l-0.2,0.3
			c-0.7,0.8-1.4,1.6-2.1,2.5c-0.3,0.4-0.7,0.8-1,1.2c-0.2,0.2-0.3,0.4-0.5,0.6c-0.5,0.6-1,1.1-1.6,1.7c-0.8,0.8-1.4,1.4-2.3,1.8
			c-0.3,0.2-0.6,0.2-0.7,0.1c-0.1,0-0.1-0.2-0.1-0.4c-0.1-1,0.3-1.6,0.8-2.2l0.3-0.5c0.9-1.4,2-3.2,2-5.4c0-0.5-0.4-1-0.8-1.2
			c-0.4-0.2-0.8-0.2-1.1,0.1c-0.2,0.1-0.3,0.3-0.4,0.4c-0.9,1.1-3.5,4.9-3.3,9.1c0,0.8,0.4,1.6,1,2.1c0.1,0.1,0.2,0.2,0.4,0.3
			c0.9,0.5,1.9,0.5,3-0.1c0.1-0.1,0.2-0.1,0.4-0.2c1.4-0.8,2.5-1.9,3.6-3.1c0.2-0.2,0.3-0.3,0.5-0.5l0.4-0.5
			c0.2-0.2,0.4-0.4,0.5-0.6c0.3-0.3,0.6-0.6,0.8-1c0.2-0.2,0.4-0.5,0.6-0.7c-0.2,0.7-0.5,1.4-0.8,2c-0.4,1-0.8,1.9-1.2,2.9
			c-0.2,0.5-0.4,0.9-0.6,1.3c0,0.1,0,0.1-0.1,0.2c-0.3,0.6-0.6,1.3-0.8,1.9c-0.4,0.4-0.9,0.8-1.4,1.2c-2.6,2.5-6,5.9-8.5,9.8
			c-0.6,1-1.4,2.2-1.6,3.7c-0.2,1.5,0.7,2.8,2.2,3l0.1,0h0.1c1.9-0.3,3-1.7,3.9-2.8l0.1-0.1c2.4-2.9,4.2-6.4,6.2-10.6
			c0.6-1.3,1.3-2.7,1.9-4l0.1-0.2l0,0c0.8-0.8,1.6-1.5,2.2-2.1c0.1-0.1,0.1-0.1,0.2-0.2c0,0.1,0,0.1,0,0.2c0,0.1,0,0.2,0,0.2
			c-0.1,0.8,0.1,1.7,0.6,2.2c0.2,0.2,0.3,0.3,0.5,0.4c0.2,0.1,0.5,0.2,0.8,0.2c0.3,0,0.6-0.1,0.9-0.3c1.2-0.5,2-1.5,2.7-2.4
			c1-1.2,1.8-2.2,2.4-3.3c0.2-0.3,0.3-0.5,0.5-0.8l0.1-0.1c0.4,0.1,0.7,0.1,1.1,0.2c0.5,0,1,0,1.4,0c-0.1,0.5-0.1,1-0.1,1.3
			c0,0.9,0.3,1.7,0.9,2.1c0.2,0.1,0.3,0.2,0.5,0.3c0.4,0.2,0.9,0.2,1.5,0.1c0.2,0,0.4-0.1,0.6-0.1c2.2-0.5,4.2-1.6,5.9-3.1
			c-0.3,1.1-0.5,2.1-0.5,2.7c0,0.1,0,0.3,0.1,0.4c0.1,0.7,0.4,1.1,0.9,1.3c0.7,0.3,1.6,0.1,2.8-0.7c0.2-0.2,0.6-0.4,1-0.7
			c0.3-0.2,0.6-0.4,0.9-0.7c0.4-0.3,0.8-0.6,1.2-1c-0.4,1.5-0.2,1.9,0,2.2c0.2,0.2,0.4,0.3,0.7,0.3c0.8,0,1.6-1,3.8-3.9
			c0.6-0.8,1.3-1.7,2-2.6l0.7-0.8c0.8-1,1.9-2.2,2.9-3c0.6-0.5,1.2-0.9,1.7-1l1.5-0.4L307.2,84.9z M256.8,110.2l-0.1,0.1
			c-0.6,0.9-1.3,2-2.2,2.7c0.2-0.6,0.5-1.2,0.9-1.8l0.1-0.2c1.2-2,2.6-3.8,4.1-5.6C258.7,107.2,257.8,108.8,256.8,110.2z
			 M273.6,92.8L273.6,92.8c-0.7,1.1-1.4,2.1-2.3,3c0.4-1.2,1.1-3,1.9-4.9c0-0.1,0.1-0.2,0.1-0.2c0,0,0.1-0.1,0.1-0.1
			c0.3,0.3,0.6,0.6,1,0.8C274.2,91.9,273.9,92.3,273.6,92.8z M276.1,87.5c-0.1,0.6-0.4,1.1-0.5,1.6c-0.2-0.1-0.3-0.3-0.4-0.4
			c0.4-1.1,0.2-2.2-0.5-2.6c-0.1-0.1-0.3-0.1-0.4-0.2c0,0,0.1,0,0.1-0.1c0.4-0.2,1.1-0.2,1.5,0c0.2,0.1,0.3,0.2,0.3,0.3
			C276.2,86.5,276.2,86.9,276.1,87.5z"/>
	</g>
	<path class="st1" d="M336.9,71v0.4h0.1L336.9,71z"/>
	<path class="st1" d="M357.3,78.1c-1.3-1.2-3.1-2.2-5.4-2.7c2.3-0.6,4.1-1.8,5.2-3.5c0.1-0.1,0.1-0.2,0.2-0.2c1-1.6,1.6-3.4,1.6-5.4
		c0-2.1-0.5-4-1.6-5.7c-0.4-0.7-0.9-1.3-1.4-1.9c-1.1-1.2-2.5-2.1-4.2-2.6c-1.5-0.5-3.3-0.7-5.4-0.7h-21.1v41.7H345
		c2.6,0,4.8-0.2,6.7-0.7c2.6-0.6,4.4-1.6,5.5-3c0.7-0.9,1.2-1.8,1.7-2.8c0.8-1.7,1.2-3.5,1.2-5.5C360,82.2,359.1,79.8,357.3,78.1z
		 M336.9,64.3h5.7c2.8,0,4.3,1.2,4.3,3.5c0,0.9-0.3,1.7-0.9,2.4c-0.6,0.8-1.7,1.1-3.1,1.1h-5.9V64.3z M346.5,86.6
		c-0.7,0.8-1.9,1.2-3.4,1.2h-6.2v-7.6h5.8c1.9,0,3.2,0.4,3.9,1.2c0.7,0.8,1.1,1.7,1.1,2.6C347.6,85,347.3,85.9,346.5,86.6z"/>
	<path class="st1" d="M402.1,96.5l-0.1-0.2l-0.5-1.1l-6.8-16.3c3-1.4,4.9-3,5.9-4.9c0.3-0.5,0.5-1,0.7-1.5c0.5-1.5,0.8-3.1,0.8-4.8
		c0-3.7-1.3-6.6-4-8.9c-1.9-1.6-4.3-2.6-7.2-3.1c-1.2-0.2-2.5-0.3-4-0.3h-21.8v41.7h12.8V81.1h4l4.8,12.5l1.1,2.9l0.2,0.5h14.2
		L402.1,96.5z M387.4,71.2c-0.2,0.1-0.3,0.2-0.5,0.3c-0.9,0.5-2,0.7-3.3,0.7h-5.5v-8h5.9c1.2,0,2.2,0.2,2.9,0.5c1.3,0.6,2,1.8,2,3.5
		C388.9,69.6,388.4,70.5,387.4,71.2z"/>
	<path class="st1" d="M444.2,96.5l-8.7-27.9l-3.7-11.9l-0.4-1.4h-13.5l-4,13.1l-4.9,16l-3.3,10.5l-0.3,1.1l-0.3,0.9h10.4l2-6.4
		l0.5-1.8H429l0.5,1.8l1.7,5.9l0.2,0.5h13L444.2,96.5z M420,79.8l0.2-0.8l3.1-11.3l3.4,12.1H420z"/>
	<rect x="448.2" y="55.4" class="st1" width="12.8" height="41.7"/>
	<path d="M503.9,55.4v41.7h-10.4l-11.4-18.4c-1.5-2.4-2.9-5.2-4.4-8.6c0.7,2.7,1,5,1,6.8v20.2h-10.4V55.4h12.1l9.7,15.2
		c1.9,3,3.4,5.7,4.4,8c-0.6-3.6-1-7.2-1-10.9V55.4H503.9z"/>
	<path d="M503.9,55.4v41.7h-10.4l-11.4-18.4c-1.5-2.4-2.9-5.2-4.4-8.6c0.7,2.7,1,5,1,6.8v20.2h-10.4V55.4h12.1l9.7,15.2
		c1.9,3,3.4,5.7,4.4,8c-0.6-3.6-1-7.2-1-10.9V55.4H503.9z"/>
	<path class="st1" d="M503.9,55.4v41.7h-10.4l-11.4-18.4c-1.5-2.4-2.9-5.2-4.4-8.6c0.7,2.7,1,5,1,6.8v20.2h-10.4V55.4h12.1l9.7,15.2
		c1.9,3,3.4,5.7,4.4,8c-0.6-3.6-1-7.2-1-10.9V55.4H503.9z"/>
	<path class="st1" d="M493.5,55.4v12.3c0,3.7,0.3,7.4,1,10.9c-1-2.3-2.5-5-4.4-8l-9.7-15.2h-12.1v41.7h10.4V76.9
		c0-1.9-0.3-4.1-1-6.8c1.5,3.4,3,6.2,4.4,8.6l11.4,18.4h10.4V55.4H493.5z"/>
</g>
</svg>
