<?xml version="1.0" encoding="utf-8"?>
<!-- Generator: Adobe Illustrator 26.0.1, SVG Export Plug-In . SVG Version: 6.00 Build 0)  -->
<svg version="1.1" id="Layer_1" xmlns="http://www.w3.org/2000/svg" xmlns:xlink="http://www.w3.org/1999/xlink" x="0px" y="0px"
	 viewBox="0 0 24 24" style="enable-background:new 0 0 24 24;" xml:space="preserve">
<style type="text/css">
	.st0{fill:#757575;}
</style>
<g>
	<g>
		<path class="st0" d="M20.8,11.2c0,2.7-0.7,4.9-2.2,6.7l-0.9,0.2l-0.6,0.2v-2.6h2v-4.1h-2V8.9l-0.9,0.2c-0.2-0.7-0.6-1.4-1.1-1.9
			c-1-1-2.5-1.5-4.5-1.5c-0.6,0-1.2,0-1.6,0.1v11.5c0.3,0,0.7,0,1.2,0c0.9,0,1.7-0.1,2.4-0.3v1.2c0,0.6,0.1,1.1,0.2,1.5
			c0.1,0.4,0.2,0.7,0.4,1c-1,0.2-2.1,0.3-3.4,0.3c-1.5,0-2.8-0.1-4.1-0.2l-0.9-0.1V2.6l0.9-0.1C7.4,2.2,9,2.1,10.5,2.1
			c3.3,0,5.8,0.8,7.5,2.4C19.8,6.1,20.8,8.4,20.8,11.2z"/>
		<path class="st0" d="M20.8,11.2c0,2.7-0.7,4.9-2.2,6.7l-0.9,0.2l-0.6,0.2v-2.6h2v-4.1h-2V8.9l-0.9,0.2c-0.2-0.7-0.6-1.4-1.1-1.9
			c-1-1-2.5-1.5-4.5-1.5c-0.6,0-1.2,0-1.6,0.1v11.5c0.3,0,0.7,0,1.2,0c0.9,0,1.7-0.1,2.4-0.3v1.2c0,0.6,0.1,1.1,0.2,1.5
			c0.1,0.4,0.2,0.7,0.4,1c-1,0.2-2.1,0.3-3.4,0.3c-1.5,0-2.8-0.1-4.1-0.2l-0.9-0.1V2.6l0.9-0.1C7.4,2.2,9,2.1,10.5,2.1
			c3.3,0,5.8,0.8,7.5,2.4C19.8,6.1,20.8,8.4,20.8,11.2z"/>
	</g>
</g>
<g>
	<g>
		<path class="st0" d="M16.1,14.7v3.7c0,0.2,0,0.3,0,0.4c0.1,0.6,0.3,0.6,0.5,0.6c0.2,0,0.3,0,0.4,0c0.1,0,0.2,0,0.3,0l0.6-0.2
			l0,0.8l0.1,1.2l-0.3,0.1c-0.4,0.1-0.9,0.2-1.4,0.2c-0.3,0-0.7,0-0.9-0.1c-0.4-0.1-0.7-0.3-1-0.6c0,0-0.1-0.1-0.1-0.1
			c-0.2-0.2-0.3-0.5-0.4-0.9c-0.1-0.4-0.1-0.8-0.1-1.3v-3.7h-1.2v-2.1h1.2v-1.7l1.7-0.5v0l0.7-0.2v2.4h2v2.1H16.1z"/>
	</g>
</g>
</svg>
