<svg id="Layer_1" data-name="Layer 1" xmlns="http://www.w3.org/2000/svg" viewBox="0 0 322.73653 463.28561"><defs><style>.cls-1{fill:#757575;}</style></defs><path class="cls-1" d="M185.22673,369.79683c-22.16336-.42612-45.18623-5.8545-66.53415-21.87542-9.34183-7.01077-17.747-15.805-23.72909-28.59124-9.22489-19.71726-8.25946-41.51444,2.49264-59.62579,9.70912-16.35451,22.37712-26.0968,36.18013-33.10843,22.5494-11.45461,45.81412-14.31625,69.52517-11.27365,18.07284,2.31912,35.44285,8.3502,51.59833,20.52481,9.52618,7.17885,18.08715,16.15969,24.15476,29.26061a63.382,63.382,0,0,1-2.65557,58.8992c-9.57025,16.09151-21.9859,25.79889-35.53414,32.90959C223.34154,366.03993,205.28813,369.60468,185.22673,369.79683Z" transform="translate(-88.63173 -15.11864)"/><path class="cls-1" d="M307.88226,170.68292A107.65607,107.65607,0,0,1,244.845,149.15829a75.39065,75.39065,0,0,1-24.38409-29.55775,63.418,63.418,0,0,1,2.43132-58.17572c9.533-16.37933,22.001-26.33386,35.691-33.34536,25.68113-13.1529,52.09157-15.71964,78.97842-10.28848,17.55933,3.547,34.26258,10.712,49.40258,24.34324a71.46621,71.46621,0,0,1,19.67157,28.24936,63.20545,63.20545,0,0,1-4.31469,54.2694c-9.76067,16.74235-22.62894,26.578-36.627,33.74477C348.57959,167.1601,330.83967,170.68959,307.88226,170.68292Z" transform="translate(-88.63173 -15.11864)"/><path class="cls-1" d="M285.43515,325.51174c-.50717,10.63839-.271,21.48827-1.70024,31.86425-2.0135,14.61745-8.94251,25.099-16.95952,33.91771-13.469,14.816-28.98925,23.00287-45.41418,27.7104-29.47311,8.44729-58.65234,6.8533-87.22118-7.1989-14.04751-6.90956-26.96431-16.76218-36.72994-33.5042a63.5177,63.5177,0,0,1-8.76459-32.68095c.0002-6.729,0-13.45812,0-20.6466.37936.47019.64215.6315.69054.8793,3.59209,18.39452,12.4587,30.60347,23.21271,40.42191,15.37586,14.03821,32.4799,21.14082,50.34428,24.58807,23.2451,4.48553,46.30434,2.91763,68.9482-6.32224,14.56269-5.94233,28.20246-14.62673,39.54163-29.57471a68.53216,68.53216,0,0,0,13.04358-29.786Z" transform="translate(-88.63173 -15.11864)"/><path class="cls-1" d="M88.64168,379.121c1.83142,5.55344,3.1933,11.02221,5.29651,15.81959,7.512,17.13469,18.88394,27.58461,31.438,35.41431,24.57961,15.32977,50.40944,19.21581,76.896,16.08162,18.41053-2.17854,36.10945-8.27261,52.563-20.66617,9.92077-7.47274,18.84034-16.84157,24.85207-30.80016,2.04251-4.74249,3.4308-10.067,4.93512-14.57717,4.15223,23.5496-2.66107,48.84146-17.72859,65.10645-14.64867,15.81286-31.40264,24.298-49.17875,28.79494-28.3652,7.17577-56.41744,5.29089-83.7892-8.31716-13.93135-6.92607-26.74213-16.73272-36.45837-33.32254a64.09588,64.09588,0,0,1-8.834-33.57451C88.67983,392.53836,88.64168,385.99535,88.64168,379.121Z" transform="translate(-88.63173 -15.11864)"/><path class="cls-1" d="M214.51646,127.51638c2.68768,6.48919,5.25482,14.40339,8.89545,21.1146,7.23485,13.33689,17.16461,21.792,27.813,28.43377,22.72522,14.17455,46.60525,18.60948,71.15992,16.76613,17.88042-1.34232,35.24975-6.23208,51.6916-16.7341,12.62149-8.06179,24.09849-18.42961,31.61758-35.76118,2.04264-4.70827,3.3614-10.06533,4.87782-14.71224,3.42768,30.67222-4.18693,54.08679-23.26083,71.17213-15.5505,13.92931-32.66069,21.30758-50.64055,24.81694a119.60045,119.60045,0,0,1-61.54017-3.65392,31.71206,31.71206,0,0,1-6.47138-3.601c-8.73757-5.52167-17.223-12.12285-26.24526-16.38468-8.50685-4.01839-14.544-11.71075-19.90678-21.11708-5.59573-9.81483-8.35325-21.14416-8.01685-33.97124C214.64525,137.96484,214.51646,132.02975,214.51646,127.51638Z" transform="translate(-88.63173 -15.11864)"/><path class="cls-1" d="M294.7859,247.23833a116.646,116.646,0,0,0,38.15224-.41892c21.37929-3.81212,41.74927-11.82723,59.367-30.65236a70.925,70.925,0,0,0,18.29053-35.97591c-.192,13.82558,1.594,27.77616-2.95676,40.95083A73.10678,73.10678,0,0,1,387.231,252.02211a97.22217,97.22217,0,0,1-50.6338,24.71924c-10.11061,1.70736-20.37429,1.52722-30.56684,2.2602-1.97.14168-2.78585-.774-3.51032-3.72894C300.21238,265.86013,297.43363,256.68622,294.7859,247.23833Z" transform="translate(-88.63173 -15.11864)"/><path class="cls-1" d="M410.36505,235.87994c0,8.24885.746,18.01373-.16658,27.44716-1.55314,16.05487-8.6577,27.61491-17.28025,37.19975-14.1328,15.71014-30.55112,23.795-47.83816,28.65972a112.20022,112.20022,0,0,1-38.10178,4.11321c-.83423-.05573-1.66428-.2416-3.10764-.459v-30.097c1.42849,0,3.08982-.03563,4.75022.00541,22.3704.55261,44.1515-3.86872,64.81653-16.70529,12.86012-7.98838,24.56435-18.46467,32.2161-36.08035C407.70583,245.2387,409.049,239.8775,410.36505,235.87994Z" transform="translate(-88.63173 -15.11864)"/><path class="cls-1" d="M303.81349,387.31775V357.02632c2.27889,0,4.59754-.02458,6.91588.0039,19.09572.23462,37.778-3.37417,55.79228-12.76988,13.66433-7.12691,26.429-16.60432,35.67761-33.27915,3.61891-6.52476,6.02684-14.43708,8.62371-20.82542-.40645,12.03309,1.35031,25.6923-2.88166,38.64679a72.38966,72.38966,0,0,1-20.64321,31.734,97.77394,97.77394,0,0,1-49.978,24.63354c-9.36905,1.6936-18.87557,1.83509-28.32342,2.58926A34.71479,34.71479,0,0,1,303.81349,387.31775Z" transform="translate(-88.63173 -15.11864)"/></svg>